<?xml version="1.0" encoding="utf-8"?>
<!-- Generator: Adobe Illustrator 23.0.6, SVG Export Plug-In . SVG Version: 6.00 Build 0)  -->
<svg version="1.1" id="Слой_1" xmlns="http://www.w3.org/2000/svg" xmlns:xlink="http://www.w3.org/1999/xlink" x="0px" y="0px"
	 viewBox="0 0 31 31" style="enable-background:new 0 0 31 31;" xml:space="preserve">
<style type="text/css">
	.st0{fill:#0A1826;}
	.st1{fill:none;stroke:#FF0000;stroke-width:3;stroke-miterlimit:10;}
	.st2{fill:#00C2FF;}
	.st3{fill:#103347;}
	.st4{fill:#FFD0FA;}
</style>
<g>
	<path class="st4" d="M22.4,8.6c0.2,0.2,0.6,0.4,0.9,0.5c0.1,0,0.2,0,0.3,0c0.2,0,0.5,0,0.7-0.1c0.3-0.1,0.6-0.4,0.8-0.6
		c0.2-0.3,0.3-0.6,0.3-1c0-0.5-0.2-0.9-0.5-1.2c-0.6-0.6-1.5-0.7-2.2-0.2c-0.3,0.2-0.5,0.5-0.6,0.8c-0.1,0.3-0.2,0.7-0.1,1
		C22,8.1,22.1,8.4,22.4,8.6z"/>
	<path class="st4" d="M30.3,5.3c-0.4-1.1-1.1-2-1.9-2.8c-0.8-0.8-1.7-1.4-2.8-1.9C24.6,0.2,23.5,0,22.4,0H8.6C6.3,0,4.2,0.9,2.5,2.5
		C0.9,4.2,0,6.3,0,8.6v13.8c0,1.1,0.2,2.2,0.7,3.3c0.4,1.1,1.1,2,1.9,2.8C4.2,30.1,6.3,31,8.6,31h13.8c1.1,0,2.2-0.2,3.3-0.7
		c1.1-0.4,2-1.1,2.8-1.9c0.8-0.8,1.4-1.7,1.9-2.8c0.4-1.1,0.7-2.2,0.7-3.3V8.6C31,7.5,30.8,6.4,30.3,5.3z M8.6,2.3h13.8
		c1.7,0,3.3,0.7,4.5,1.9c1.2,1.2,1.9,2.8,1.9,4.5v13.8c0,1.7-0.7,3.3-1.9,4.5s-2.8,1.9-4.5,1.9H8.6c-1.7,0-3.3-0.7-4.5-1.9
		c-1.2-1.2-1.9-2.8-1.9-4.5V8.6c0-1.7,0.7-3.3,1.9-4.5S6.9,2.3,8.6,2.3z"/>
	<path class="st4" d="M10.3,20.7c1,1,2.3,1.7,3.8,2c0.5,0.1,1,0.1,1.4,0.1c1,0,1.9-0.2,2.8-0.6c1.4-0.6,2.5-1.5,3.3-2.7
		c0.8-1.2,1.2-2.6,1.2-4.1c0-2-0.8-3.8-2.2-5.2c-1.4-1.4-3.2-2.2-5.2-2.2c-1.5,0-2.9,0.4-4.1,1.2c-1.2,0.8-2.2,2-2.7,3.3
		C8.1,14,8,15.5,8.3,16.9C8.6,18.4,9.3,19.7,10.3,20.7z M10.5,14.5c0.2-1,0.7-1.9,1.4-2.6c0.7-0.7,1.6-1.2,2.6-1.4
		c0.3-0.1,0.7-0.1,1-0.1c0.7,0,1.3,0.1,2,0.4c0.9,0.4,1.7,1,2.3,1.9c0.6,0.8,0.9,1.8,0.9,2.8c0,1.4-0.5,2.7-1.5,3.6
		s-2.3,1.5-3.6,1.5c-1,0-2-0.3-2.8-0.9c-0.8-0.6-1.5-1.4-1.9-2.3S10.3,15.5,10.5,14.5z"/>
</g>
</svg>
