<?xml version="1.0" encoding="utf-8"?>
<!-- Generator: Adobe Illustrator 23.0.6, SVG Export Plug-In . SVG Version: 6.00 Build 0)  -->
<svg version="1.1" id="Слой_1" xmlns="http://www.w3.org/2000/svg" xmlns:xlink="http://www.w3.org/1999/xlink" x="0px" y="0px"
	 viewBox="0 0 34 24" style="enable-background:new 0 0 34 24;" xml:space="preserve">
<style type="text/css">
	.st0{fill:#0A1826;}
	.st1{fill:none;stroke:#FF0000;stroke-width:3;stroke-miterlimit:10;}
	.st2{fill:#00C2FF;}
	.st3{fill:#103347;}
	.st4{fill:#FFD0FA;}
</style>
<path class="st4" d="M34,22.6c-1.5-5.8-5.2-9.2-7.3-10.7c5.9-5,6-10.6,6-10.8c0-0.3-0.1-0.6-0.3-0.8C32.2,0.1,31.9,0,31.7,0h-5.2
	c-0.5,0-0.9,0.3-1,0.8c-1.4,4.9-4,6.8-5.5,7.5V1.1c0-0.6-0.5-1.1-1-1.1h-5.1c-0.6,0-1,0.5-1,1.1v13.4C11,13.1,8.1,9.7,7.7,1
	c0-0.6-0.5-1-1-1H1C0.5,0,0,0.5,0,1.1v2.3C0,14.7,8.5,24,18.9,24c0.6,0,1-0.5,1-1.1v-6.5c4.7,1.3,6.2,6.2,6.3,6.7
	c0.1,0.5,0.5,0.8,1,0.8H33c0.3,0,0.6-0.2,0.8-0.4C34,23.3,34,23,34,22.6z M18.2,10.5c0.2,0.2,0.5,0.3,0.8,0.3c0.2,0,5.7-0.8,8.2-8.6
	h3.2c-0.4,1.9-1.7,5.7-6.2,8.9c-0.3,0.2-0.5,0.6-0.4,1c0,0.4,0.2,0.7,0.6,0.9c0.1,0,5,2.8,7.1,8.9H28c-0.7-2-3.2-7-8.9-7.8
	c-0.3-0.1-0.6,0.1-0.9,0.3c-0.2,0.2-0.3,0.5-0.3,0.8v6.7C9,21.2,2.1,13.2,2.1,3.3V2.2h3.6c0.9,13.1,7.6,15,7.9,15.1
	c0.3,0.1,0.7,0,0.9-0.2c0.2-0.2,0.4-0.5,0.4-0.8v-14h3v7.5C17.9,10,18,10.3,18.2,10.5z"/>
</svg>
