<?xml version="1.0" encoding="utf-8"?>
<!-- Generator: Adobe Illustrator 23.0.6, SVG Export Plug-In . SVG Version: 6.00 Build 0)  -->
<svg version="1.1" id="Слой_1" xmlns="http://www.w3.org/2000/svg" xmlns:xlink="http://www.w3.org/1999/xlink" x="0px" y="0px"
	 viewBox="0 0 31 31" style="enable-background:new 0 0 31 31;" xml:space="preserve">
<style type="text/css">
	.st0{fill:#0A1826;}
	.st1{fill:none;stroke:#FF0000;stroke-width:3;stroke-miterlimit:10;}
	.st2{fill:#00C2FF;}
	.st3{fill:#103347;}
	.st4{fill:#FFD0FA;}
</style>
<g>
	<path class="st4" d="M30.7,12.4c-0.5-2.3-1.5-4.5-2.9-6.4c-1.4-1.9-3.3-3.4-5.4-4.5c-2.1-1-4.5-1.6-6.8-1.6c0,0,0,0,0,0
		c-2.7,0-5.4,0.7-7.7,2.1C5.4,3.4,3.5,5.4,2.1,7.7c-1.4,2.3-2.1,5-2.1,7.7c0,2.6,0.7,5.2,1.9,7.6l-1.3,4.5c-0.1,0.4-0.1,0.8,0,1.2
		c0.1,0.4,0.3,0.8,0.6,1c0.3,0.3,0.6,0.5,1,0.6c0.4,0.1,0.8,0.1,1.2,0L8,29.1c2,1.1,4.3,1.8,6.6,1.9c0.3,0,0.6,0,0.9,0
		c2.1,0,4.1-0.4,6-1.2c2.2-0.9,4.1-2.3,5.7-4.1c1.5-1.8,2.7-3.9,3.3-6.2C31.1,17.2,31.2,14.8,30.7,12.4z M2.8,28.1l1.4-5
		c0.1-0.3,0-0.6-0.1-0.8c-1.5-2.5-2.1-5.5-1.8-8.4C2.7,11,4,8.3,6,6.2c2-2.1,4.8-3.4,7.7-3.8c2.9-0.4,5.9,0.2,8.4,1.6
		c2.5,1.4,4.6,3.7,5.7,6.4c1.1,2.7,1.3,5.7,0.6,8.5c-0.7,2.8-2.4,5.4-4.7,7.1c-2.3,1.8-5.2,2.8-8.1,2.8c0,0,0,0,0,0h0c0,0,0,0,0,0
		c-2.4,0-4.7-0.6-6.8-1.9c-0.2-0.1-0.3-0.1-0.5-0.1H7.9l-5.1,1.4l-0.1,0.5L2.8,28.1z"/>
	<path class="st4" d="M9.8,21.2c1.2,1.2,2.7,2.2,4.3,2.8c1.6,0.7,3.3,1,5,1c1.4,0,2.7-0.6,3.7-1.6c1-1,1.5-2.3,1.5-3.7
		c0-0.4-0.1-0.7-0.3-1.1c-0.2-0.3-0.5-0.6-0.8-0.8l-3.1-1.7c-0.4-0.2-0.7-0.3-1.2-0.3c-0.4,0-0.8,0.1-1.2,0.3l-1.8,1.1
		c-1-0.6-1.8-1.4-2.3-2.3l1.1-1.8c0.2-0.4,0.3-0.8,0.3-1.2c0-0.4-0.1-0.8-0.3-1.2l-1.7-3.1c-0.2-0.3-0.5-0.6-0.8-0.8
		c-0.3-0.2-0.7-0.3-1.1-0.3c-1.4,0-2.7,0.5-3.7,1.5S6,10.5,6,11.9c0,1.7,0.3,3.4,1,5C7.7,18.5,8.6,19.9,9.8,21.2z M13,11.8l0,0.1
		l-1.4,2.3c-0.1,0.2-0.2,0.3-0.2,0.5c0,0.2,0,0.4,0.1,0.5c0.8,1.9,2.3,3.3,4.2,4.2c0.2,0.1,0.3,0.1,0.5,0.1c0.2,0,0.4-0.1,0.5-0.2
		l2.3-1.4l0,0l0.1,0l3,1.7c0,0.8-0.3,1.6-0.9,2.2c-0.6,0.6-1.4,0.9-2.2,0.9l0,0h0c-2.9,0-5.7-1.1-7.7-3.2c-2.1-2.1-3.2-4.8-3.2-7.7
		c0-0.8,0.3-1.6,0.9-2.2c0.6-0.6,1.4-0.9,2.1-0.9L13,11.8L13,11.8L13,11.8z"/>
</g>
</svg>
